<?xml version="1.0" standalone="no"?>
<!DOCTYPE svg PUBLIC "-//W3C//DTD SVG 20010904//EN"
 "http://www.w3.org/TR/2001/REC-SVG-20010904/DTD/svg10.dtd">
<svg version="1.0" xmlns="http://www.w3.org/2000/svg"
 width="512.000000pt" height="512.000000pt" viewBox="0 0 512.000000 512.000000"
 preserveAspectRatio="xMidYMid meet">
<metadata>
Created by potrace 1.11, written by Peter Selinger 2001-2013
</metadata>
<g transform="translate(0.000000,512.000000) scale(0.100000,-0.100000)"
fill="#000000" stroke="none">
<path d="M3378 5112 c-56 -7 -53 94 -53 -1623 l0 -1588 -42 -43 c-99 -101
-113 -246 -34 -355 99 -136 290 -152 410 -33 112 110 107 293 -11 396 l-33 29
0 1592 c0 1429 -2 1594 -16 1608 -11 11 -39 16 -105 18 -49 1 -101 1 -116 -1z"/>
<path d="M2390 4687 c-3 -3 -34 -7 -70 -11 -72 -7 -101 -11 -175 -27 -27 -6
-63 -13 -80 -16 -16 -2 -91 -24 -165 -49 -636 -211 -1126 -689 -1354 -1323
-29 -81 -81 -281 -91 -348 -23 -164 -28 -226 -28 -353 -2 -559 200 -1071 581
-1481 95 -101 242 -228 271 -234 11 -2 30 4 42 14 20 16 22 27 23 157 l1 139
-60 60 c-155 157 -252 285 -345 455 -70 129 -147 326 -166 423 -2 10 -6 27 -9
36 -12 39 -36 191 -42 266 -11 158 -4 348 17 455 6 25 12 57 14 71 9 56 59
226 87 296 202 510 608 901 1122 1082 319 112 728 130 1050 46 74 -19 101 -19
118 1 17 21 20 235 4 258 -11 14 -123 45 -220 60 -22 4 -56 9 -75 12 -42 7
-444 16 -450 11z"/>
<path d="M3808 4233 c-12 -14 -16 -48 -17 -154 l-1 -135 73 -75 c281 -284 455
-611 528 -992 31 -166 33 -461 4 -632 -87 -504 -385 -961 -809 -1240 -122 -80
-276 -157 -406 -202 -127 -45 -208 -65 -345 -87 -159 -25 -418 -23 -560 4 -27
5 -59 11 -70 13 -11 2 -55 12 -97 22 -75 18 -78 18 -98 0 -18 -16 -20 -30 -20
-135 0 -99 3 -119 18 -132 16 -14 125 -42 207 -53 22 -3 45 -8 52 -10 17 -6
191 -17 287 -19 604 -12 1215 262 1626 729 259 295 461 726 505 1080 4 28 9
61 12 75 3 14 7 115 9 225 4 271 -21 445 -97 685 -124 387 -365 746 -670 996
-70 57 -105 67 -131 37z"/>
<path d="M1595 3696 c-124 -38 -198 -136 -199 -262 0 -75 38 -161 90 -202 l34
-27 0 -1587 c0 -872 3 -1593 6 -1602 5 -14 27 -16 139 -16 84 0 136 4 140 11
4 6 7 725 7 1599 l0 1589 47 48 c101 105 104 263 8 370 -68 75 -179 107 -272
79z"/>
<path d="M2058 2687 c-12 -4 -26 -13 -30 -20 -4 -7 -8 -62 -8 -124 0 -101 2
-113 20 -126 17 -12 105 -14 526 -14 476 0 506 1 528 18 22 18 24 25 23 125 0
165 59 148 -536 149 -275 0 -511 -3 -523 -8z"/>
<path d="M2514 2241 c-34 -15 -37 -27 -37 -128 1 -118 8 -128 94 -128 81 0 89
11 89 130 0 60 -5 97 -13 109 -16 21 -99 31 -133 17z"/>
</g>
</svg>
