<svg xmlns="http://www.w3.org/2000/svg" viewBox="0 0 160.84 42.06"><defs><style>.cls-1{fill:#fff;}</style></defs><title>logo</title><g id="Layer_2" data-name="Layer 2"><g id="Layer_1-2" data-name="Layer 1"><g id="Top_Banner" data-name="Top Banner"><g id="Hyperfine_Logo" data-name="Hyperfine Logo"><g id="_Group_" data-name="&lt;Group&gt;"><path id="_Compound_Path_" data-name="&lt;Compound Path&gt;" class="cls-1" d="M43,22.24,36.78,12.15a.74.74,0,0,1-.15-.39c0-.17.13-.25.39-.25h1.66a.6.6,0,0,1,.35.1,2.34,2.34,0,0,1,.32.44L44.1,20l4.85-8a1,1,0,0,1,.27-.33.71.71,0,0,1,.32-.1h1.75c.2,0,.31.07.31.23a.5.5,0,0,1,0,.14.7.7,0,0,1-.1.19l-3.12,5.05-3.12,5V30a.52.52,0,0,1-.59.59h-1.1c-.36,0-.54-.19-.54-.59Z"/><path id="_Compound_Path_2" data-name="&lt;Compound Path&gt;" class="cls-1" d="M54.65,30V12.12a.53.53,0,0,1,.59-.61h6.37A5.94,5.94,0,0,1,64,12a6.05,6.05,0,0,1,1.88,1.29,5.76,5.76,0,0,1,1.25,1.9,5.92,5.92,0,0,1,.45,2.29,5.81,5.81,0,0,1-.45,2.26,6.05,6.05,0,0,1-1.23,1.89A5.82,5.82,0,0,1,64,22.89a5.56,5.56,0,0,1-2.31.48H56.86V30a.5.5,0,0,1-.57.56H55.22A.5.5,0,0,1,54.65,30ZM65.33,17.44A3.53,3.53,0,0,0,65,16a3.86,3.86,0,0,0-.79-1.19A3.91,3.91,0,0,0,63.06,14a3.44,3.44,0,0,0-1.45-.31H56.86v7.49h4.75a3.43,3.43,0,0,0,1.43-.3,4.28,4.28,0,0,0,1.19-.82,3.77,3.77,0,0,0,.8-1.2A3.48,3.48,0,0,0,65.33,17.44Z"/><path id="_Compound_Path_3" data-name="&lt;Compound Path&gt;" class="cls-1" d="M71.36,11.51H83.71c.37,0,.56.19.56.59v1.05a.63.63,0,0,1-.15.41.54.54,0,0,1-.44.18H73v5.67h8.5a.63.63,0,0,1,.4.14.58.58,0,0,1,.17.45v1.06a.63.63,0,0,1-.15.41.49.49,0,0,1-.42.18H73v6.67H83.79c.39,0,.59.21.59.62v1a.5.5,0,0,1-.57.56H71.36c-.38,0-.56-.18-.56-.54V12.1C70.8,11.7,71,11.51,71.36,11.51Z"/><path id="_Compound_Path_4" data-name="&lt;Compound Path&gt;" class="cls-1" d="M87.28,30V12.12c0-.41.18-.61.56-.61h7.42a6,6,0,0,1,2.36.47,5.93,5.93,0,0,1,1.91,1.3,6.35,6.35,0,0,1,1.29,1.92,6.07,6.07,0,0,1,.47,2.37,5.77,5.77,0,0,1-1,3.28A6,6,0,0,1,97.77,23l3.39,7a1.14,1.14,0,0,1,0,.23c0,.22-.15.33-.46.33H99.34a.62.62,0,0,1-.4-.12,1.87,1.87,0,0,1-.27-.36l-3.1-6.52H89.48V30a.49.49,0,0,1-.56.56H87.84A.49.49,0,0,1,87.28,30Zm11.8-12.45a3.63,3.63,0,0,0-.29-1.46A3.94,3.94,0,0,0,98,14.86,3.89,3.89,0,0,0,96.77,14a3.58,3.58,0,0,0-1.51-.32H89.48v7.7h5.8A3.71,3.71,0,0,0,98,20.25a4,4,0,0,0,.8-1.23A3.76,3.76,0,0,0,99.08,17.54Z"/><path id="_Compound_Path_5" data-name="&lt;Compound Path&gt;" class="cls-1" d="M104.5,30V12.1c0-.4.19-.59.56-.59h12.2a.52.52,0,0,1,.59.59v1.05a.59.59,0,0,1-.16.41.52.52,0,0,1-.43.18H106.71v6.62h1.88l2.31,0h4.2a.61.61,0,0,1,.4.14.55.55,0,0,1,.17.45V22a.61.61,0,0,1-.15.41.49.49,0,0,1-.42.18h-8.39V30c0,.36-.2.54-.59.54h-1.06A.49.49,0,0,1,104.5,30Z"/><path id="_Compound_Path_6" data-name="&lt;Compound Path&gt;" class="cls-1" d="M122.8,12.07V30a.49.49,0,0,1-.56.56h-1.08a.5.5,0,0,1-.57-.56V12.07a.5.5,0,0,1,.57-.56h1.08A.5.5,0,0,1,122.8,12.07Z"/><path id="_Compound_Path_7" data-name="&lt;Compound Path&gt;" class="cls-1" d="M142.57,30.55h-1.21a.62.62,0,0,1-.49-.23L129.17,15V30c0,.38-.2.56-.59.56h-1.06A.49.49,0,0,1,127,30V12.1a.64.64,0,0,1,.15-.43.54.54,0,0,1,.41-.16h1.42a.56.56,0,0,1,.48.25l11.53,15V12a.51.51,0,0,1,.56-.49h1.06a.68.68,0,0,1,.42.15.49.49,0,0,1,.19.41V30C143.18,30.37,143,30.55,142.57,30.55Z"/><path id="_Compound_Path_8" data-name="&lt;Compound Path&gt;" class="cls-1" d="M147.83,11.51h12.35c.37,0,.56.19.56.59v1.05a.63.63,0,0,1-.15.41.56.56,0,0,1-.44.18H149.47v5.67H158a.65.65,0,0,1,.4.14.58.58,0,0,1,.16.45v1.06a.62.62,0,0,1-.14.41.49.49,0,0,1-.42.18h-8.5v6.67h10.78c.4,0,.59.21.59.62v1a.49.49,0,0,1-.56.56H147.83q-.57,0-.57-.54V12.1C147.26,11.7,147.45,11.51,147.83,11.51Z"/></g><g id="_Group_2" data-name="&lt;Group&gt;"><path id="_Path_" data-name="&lt;Path&gt;" class="cls-1" d="M24.71,30.51a2.22,2.22,0,0,0,1.44-4.08V.48A.49.49,0,0,0,25.67,0H24.26a.49.49,0,0,0-.48.48v26a2.22,2.22,0,0,0,.93,4.08Z"/><path id="_Path_2" data-name="&lt;Path&gt;" class="cls-1" d="M9.91,11.55A2.22,2.22,0,0,0,9,15.63V41.58a.47.47,0,0,0,.48.48h1.4a.48.48,0,0,0,.49-.48V15.63a2.22,2.22,0,0,0-1.45-4.08Z"/><rect id="_Path_3" data-name="&lt;Path&gt;" class="cls-1" x="13.08" y="19.85" width="8.99" height="2.37" rx="0.48" ry="0.48"/><rect id="_Path_4" data-name="&lt;Path&gt;" class="cls-1" x="16.83" y="23.51" width="1.48" height="2.14" rx="0.48" ry="0.48"/><path id="_Path_5" data-name="&lt;Path&gt;" class="cls-1" d="M2.37,21A15.21,15.21,0,0,1,21.74,6.41.44.44,0,0,0,22.3,6V4.45A.43.43,0,0,0,22,4a17.46,17.46,0,0,0-4.4-.56A17.54,17.54,0,0,0,3.23,10.87,17.59,17.59,0,0,0,4.72,33a18.4,18.4,0,0,0,2.07,1.89.45.45,0,0,0,.72-.35V32.62a.41.41,0,0,0-.15-.33A15.2,15.2,0,0,1,2.37,21Z"/><path id="_Path_6" data-name="&lt;Path&gt;" class="cls-1" d="M30.42,9.05a19.5,19.5,0,0,0-2.07-1.9.45.45,0,0,0-.72.35V9.45a.47.47,0,0,0,.14.33A15.18,15.18,0,0,1,17.71,36.23a15,15,0,0,1-4.31-.58.44.44,0,0,0-.56.43v1.54a.44.44,0,0,0,.32.43,18,18,0,0,0,4.41.55A17.57,17.57,0,0,0,30.42,9.05Z"/></g></g></g></g></g></svg>